<?xml version="1.0" standalone="no"?>
<!DOCTYPE svg PUBLIC "-//W3C//DTD SVG 20010904//EN"
 "http://www.w3.org/TR/2001/REC-SVG-20010904/DTD/svg10.dtd">
<svg version="1.0" xmlns="http://www.w3.org/2000/svg"
 width="20em" height="20em" viewBox="0 0 2732.000000 2048.000000"
 preserveAspectRatio="xMidYMid meet">
<metadata>
Created by potrace 1.16, written by Peter Selinger 2001-2019
</metadata>
<g transform="translate(0.000000,2048.000000) scale(0.100000,-0.100000)"
fill="#000000" stroke="none">
<path d="M14841 17006 c-6 -7 -36 -16 -66 -20 -31 -3 -84 -21 -124 -41 -38
-19 -72 -35 -76 -35 -14 0 -84 -59 -148 -125 -48 -49 -82 -97 -114 -160 -40
-78 -46 -100 -51 -168 -4 -64 -2 -81 13 -97 25 -27 81 -33 140 -15 44 14 312
34 500 37 100 1 260 -15 324 -33 71 -20 155 -25 194 -10 13 5 32 25 41 45 14
31 15 47 6 123 -14 113 -18 128 -48 188 -56 112 -123 177 -257 250 -62 33 -83
39 -182 49 -61 6 -115 14 -119 19 -11 10 -20 9 -33 -7z"/>
<path d="M14540 16274 c-335 -35 -471 -60 -765 -139 -54 -14 -260 -81 -285
-91 -8 -4 -35 -15 -60 -24 -155 -60 -348 -148 -440 -200 -8 -5 -28 -15 -45
-23 -46 -22 -146 -78 -189 -106 -42 -28 -40 -26 -135 -88 -82 -53 -94 -61
-211 -147 -333 -244 -715 -646 -937 -985 -35 -53 -68 -103 -73 -111 -32 -45
-100 -166 -100 -176 0 -7 -3 -14 -7 -16 -5 -1 -19 -23 -32 -48 -47 -90 -99
-196 -121 -245 -29 -66 -60 -135 -71 -160 -18 -39 -88 -255 -95 -292 -4 -21
-10 -43 -15 -48 -17 -22 -81 -296 -99 -420 -5 -38 -14 -90 -20 -115 -12 -57
-25 -339 -17 -372 8 -30 37 -43 122 -57 67 -11 1416 -18 5322 -27 2073 -5
2599 -4 2623 6 19 8 33 22 37 38 8 35 -13 389 -32 527 -19 140 -55 327 -65
340 -4 6 -11 30 -15 55 -3 25 -15 70 -25 100 -9 30 -28 89 -41 130 -12 41 -26
77 -29 80 -3 3 -11 25 -17 50 -27 108 -165 413 -259 570 -25 41 -50 84 -57 95
-90 150 -171 270 -261 385 -49 63 -94 120 -100 125 -6 6 -40 44 -76 85 -137
158 -372 370 -590 533 -96 71 -208 147 -218 147 -5 0 -15 7 -22 14 -25 31
-447 258 -521 281 -21 7 -155 61 -244 100 -16 7 -70 25 -120 40 -49 15 -109
34 -133 41 -23 8 -51 14 -60 14 -10 0 -22 4 -27 9 -6 5 -77 23 -160 40 -82 17
-170 36 -195 41 -25 5 -79 12 -120 15 -41 4 -84 10 -95 15 -70 29 -672 39
-905 14z m-1002 -910 c27 -19 29 -65 5 -86 -10 -8 -70 -40 -133 -70 -359 -172
-751 -534 -886 -818 -62 -129 -59 -125 -78 -128 -36 -7 -49 18 -43 85 22 280
562 830 982 1000 90 37 120 40 153 17z m2423 -1800 c75 -27 112 -24 125 11 9
22 37 19 30 -2 -2 -10 -16 -70 -31 -133 -15 -63 -30 -119 -34 -123 -5 -4 -11
19 -14 52 -6 74 -33 119 -85 149 -70 39 -180 23 -215 -31 -50 -77 -32 -122
108 -268 128 -134 155 -180 155 -260 0 -100 -58 -183 -156 -225 -55 -24 -173
-22 -248 5 -75 27 -84 26 -117 -5 -15 -14 -29 -22 -32 -17 -4 6 20 123 58 281
10 43 25 21 25 -37 0 -68 12 -106 43 -139 59 -64 174 -83 237 -39 57 38 75 71
75 136 0 71 -14 93 -151 240 -104 112 -124 146 -124 216 0 170 162 257 351
189z m-595 -291 c-33 -109 -126 -452 -126 -465 0 -33 21 -28 69 17 64 60 74
42 15 -24 -52 -58 -89 -81 -132 -81 -68 0 -67 35 3 282 30 106 55 200 55 209
0 20 -20 29 -61 29 -59 0 -27 18 59 32 120 21 124 21 118 1z m1199 1 c67 -31
65 -115 -5 -183 -53 -51 -138 -91 -234 -108 -45 -8 -87 -17 -93 -19 -8 -2 -13
-21 -13 -46 0 -124 129 -175 250 -100 25 16 55 35 67 42 38 25 36 3 -4 -34
-21 -20 -69 -52 -107 -71 -111 -56 -208 -48 -269 24 -73 87 -55 221 48 361 86
117 260 182 360 134z m342 -6 c-2 -13 -18 -70 -35 -128 -17 -57 -30 -106 -28
-108 3 -2 23 25 47 60 107 158 213 234 251 179 13 -19 15 -19 98 1 78 18 85
18 96 3 27 -37 63 -241 64 -362 0 -34 4 -64 9 -67 17 -11 169 184 202 260 21
47 18 64 -20 98 -25 23 -27 43 -4 68 22 24 56 23 79 -3 43 -48 12 -151 -86
-280 -72 -96 -230 -269 -245 -269 -14 0 -25 52 -25 120 0 25 -7 103 -15 174
-17 145 -41 212 -77 220 -45 11 -63 2 -78 -38 -25 -64 -70 -75 -90 -21 -5 14
-13 25 -18 25 -18 0 -54 -34 -104 -102 -80 -108 -97 -139 -138 -256 l-38 -107
-41 -3 c-31 -2 -41 0 -41 12 0 8 26 104 59 213 74 250 74 252 60 269 -6 8 -27
14 -45 14 -60 0 -36 18 39 30 39 6 77 13 82 15 31 11 47 4 42 -17z m1282 7
c16 -8 34 -28 41 -45 11 -26 10 -37 -5 -75 -30 -79 -139 -146 -279 -172 -45
-8 -87 -17 -93 -19 -19 -5 -16 -74 5 -113 41 -76 140 -90 232 -33 25 16 55 35
67 42 35 22 41 2 8 -26 -99 -82 -169 -114 -251 -114 -63 0 -101 16 -138 60
-38 46 -51 103 -37 170 30 148 146 285 276 326 55 17 140 17 174 -1z"/>
<path d="M16403 13245 c-66 -28 -147 -134 -167 -219 l-7 -29 47 7 c100 13 210
84 240 153 19 44 18 59 -6 83 -23 23 -62 25 -107 5z"/>
<path d="M18022 13243 c-68 -33 -137 -126 -167 -222 -7 -24 -6 -24 40 -18 153
21 291 155 241 232 -20 30 -64 33 -114 8z"/>
<path d="M10690 12300 c-9 -6 -169 -10 -400 -10 -417 -1 -633 -11 -671 -30
-28 -15 -89 -80 -89 -96 0 -6 -7 -26 -16 -44 -13 -25 -15 -48 -11 -97 4 -36
10 -70 15 -77 5 -6 12 -22 15 -36 10 -40 68 -96 117 -113 25 -8 92 -19 150
-22 58 -4 116 -8 130 -9 14 -2 859 -4 1879 -4 l1853 -2 -61 -45 c-34 -25 -64
-45 -67 -45 -5 0 -28 -17 -81 -60 -7 -6 -15 -10 -18 -10 -3 0 -32 -18 -65 -39
-32 -22 -69 -43 -82 -46 -13 -4 -26 -12 -29 -17 -3 -5 -50 -25 -104 -43 -53
-18 -99 -36 -103 -39 -3 -3 -13 -6 -23 -6 -9 0 -39 -11 -66 -24 -26 -13 -69
-31 -95 -40 -75 -25 -370 -165 -376 -178 -2 -5 -7 -8 -11 -8 -13 0 -174 -99
-205 -125 -15 -14 -30 -25 -32 -25 -5 0 -146 -92 -154 -100 -3 -3 -43 -36 -90
-74 -97 -78 -119 -101 -175 -181 -22 -31 -47 -65 -56 -74 -38 -40 -102 -151
-146 -256 -35 -83 -44 -91 -113 -99 -33 -4 -60 -11 -60 -16 0 -6 -12 -10 -27
-10 -37 0 -115 -39 -121 -62 -4 -16 -17 -18 -156 -18 -151 1 -186 8 -186 39 0
23 -60 71 -90 71 -16 0 -32 5 -35 10 -4 6 -75 10 -181 10 -150 0 -181 3 -217
19 -38 17 -82 19 -492 25 -707 10 -1700 11 -2293 2 -538 -8 -544 -9 -569 -30
l-25 -22 1 -253 c1 -143 -2 -258 -7 -264 -15 -18 -20 -1326 -6 -1335 6 -4 14
-16 18 -28 11 -37 59 -44 310 -44 l237 0 -2 -1125 -2 -1125 23 -33 c28 -41 79
-77 108 -77 12 0 22 -4 22 -10 0 -7 350 -10 1029 -10 l1030 0 35 23 c20 12 43
40 53 62 17 38 18 98 14 1178 l-4 1137 260 0 c247 0 260 1 281 20 12 12 22 25
22 30 0 5 95 10 215 12 l214 3 36 39 35 39 0 131 c0 72 4 136 8 142 4 7 62 13
152 16 95 4 165 11 204 23 57 17 59 17 87 -4 15 -12 32 -21 38 -21 5 0 11 -5
13 -10 2 -6 37 -11 78 -13 61 -2 84 2 124 21 26 13 90 38 141 57 51 18 101 38
111 44 30 17 167 78 190 85 12 4 29 15 39 26 10 11 24 20 31 20 14 0 153 67
254 122 45 24 198 96 218 102 12 4 22 11 22 15 0 10 127 74 175 88 46 13 213
81 300 123 87 41 212 87 275 100 30 7 69 18 87 26 17 8 40 14 51 14 11 0 35 6
53 14 19 8 88 19 154 25 191 18 264 31 312 56 52 28 174 122 187 144 5 8 20
26 33 39 13 12 23 25 23 28 0 3 18 28 40 57 44 59 141 140 213 177 26 14 47
28 47 32 0 3 13 9 30 13 16 4 32 10 35 15 3 5 35 23 70 42 36 18 65 36 65 40
0 4 17 10 38 14 34 7 237 110 272 139 8 7 47 31 85 54 76 44 170 128 200 176
29 48 157 218 180 240 12 11 39 43 61 70 21 28 51 63 67 80 15 16 42 51 59 77
16 27 34 48 38 48 4 0 14 15 21 33 7 17 24 43 36 57 13 14 23 31 23 38 0 7 14
18 30 23 17 6 30 15 30 19 0 4 16 11 36 15 20 3 53 15 75 27 39 20 109 95 109
117 0 6 4 11 9 11 5 0 19 25 31 57 23 61 21 91 -10 155 l-18 38 1736 0 c1803
0 2014 3 2097 26 163 47 248 191 183 310 -65 117 -100 134 -328 153 -52 5
-858 12 -1790 15 -932 3 -1798 8 -1925 11 -126 3 -1402 8 -2835 11 -1477 4
-2606 10 -2608 15 -5 12 -33 11 -52 -1z m3390 -524 c47 -13 84 -54 97 -105 14
-55 -40 -183 -114 -274 -48 -59 -257 -223 -366 -288 -131 -77 -227 -189 -227
-265 0 -38 5 -46 63 -100 34 -33 93 -75 131 -94 92 -46 208 -53 336 -20 47 12
123 31 170 41 46 11 153 43 236 70 189 62 224 85 504 325 36 31 97 77 135 103
39 26 140 103 225 172 280 225 332 259 465 305 107 37 248 41 292 8 37 -28 73
-91 73 -131 0 -63 -14 -80 -109 -128 -86 -43 -93 -49 -142 -122 -55 -82 -87
-121 -240 -304 -53 -63 -134 -166 -181 -230 -96 -130 -128 -159 -278 -248 -58
-35 -130 -78 -162 -97 -31 -19 -104 -57 -163 -84 -282 -131 -412 -221 -509
-349 -69 -92 -190 -207 -249 -237 -31 -16 -228 -43 -318 -44 -25 0 -95 -13
-155 -30 -60 -16 -145 -40 -189 -52 -44 -12 -127 -42 -185 -66 -58 -25 -177
-73 -265 -108 -88 -36 -185 -78 -215 -94 -81 -43 -694 -348 -770 -382 -36 -16
-131 -56 -213 -89 -123 -49 -157 -59 -208 -59 -55 0 -63 3 -90 33 -102 110
-178 471 -179 845 0 234 33 407 86 453 23 20 71 35 139 44 99 13 109 22 170
147 62 126 79 154 182 290 101 135 218 230 547 442 172 111 445 237 721 333
136 47 241 105 430 237 177 125 192 134 250 152 53 17 219 17 275 0z m2049 -6
c30 -16 61 -83 61 -132 0 -37 -29 -108 -44 -108 -3 0 -10 17 -15 38 -13 45
-62 107 -103 128 -20 10 -60 16 -117 17 -141 1 -309 -64 -459 -180 -66 -51
-191 -150 -282 -223 -41 -33 -111 -85 -155 -114 -44 -30 -125 -94 -180 -142
-105 -92 -241 -196 -284 -219 -42 -21 -321 -111 -386 -124 -33 -7 -89 -22
-125 -34 -51 -17 -90 -21 -180 -22 -110 0 -117 1 -175 32 -33 17 -73 43 -89
56 l-30 24 97 7 c149 11 164 16 532 169 176 73 262 117 379 194 221 146 331
203 391 203 37 0 55 10 71 41 8 16 43 50 78 77 35 26 116 87 180 135 65 48
158 109 207 135 l91 47 191 6 c225 7 318 4 346 -11z m-965 1 c9 -14 -40 -103
-87 -156 -62 -72 -81 -102 -106 -172 -23 -61 -24 -63 -75 -77 -53 -16 -225
-114 -358 -204 -42 -29 -127 -77 -190 -106 -165 -77 -175 -79 -115 -22 113
108 381 465 448 596 21 41 54 92 73 113 l35 37 185 0 c102 0 187 -4 190 -9z
m-499 -57 c-19 -26 -35 -53 -35 -60 0 -15 -81 -144 -91 -144 -3 0 -12 -13 -19
-30 -7 -16 -17 -30 -22 -30 -5 0 -12 -8 -15 -17 -7 -19 -80 -121 -99 -138 -6
-5 -33 -37 -60 -70 -93 -113 -109 -130 -187 -207 -48 -48 -92 -81 -115 -89
-20 -6 -42 -15 -48 -20 -17 -13 -194 -69 -219 -69 -13 0 -27 -4 -30 -10 -3 -6
-48 -10 -100 -10 -85 0 -94 2 -100 20 -8 24 19 70 67 117 60 59 93 83 171 127
26 14 53 31 60 36 7 5 66 51 131 102 65 51 124 102 130 113 6 11 16 24 23 30
25 22 81 124 106 193 23 61 25 80 18 114 -5 22 -14 45 -20 51 -6 6 -11 17 -11
24 0 10 52 13 250 13 l251 0 -36 -46z m780 36 c-3 -5 -14 -10 -23 -10 -19 0
-76 -39 -229 -155 -117 -89 -145 -107 -134 -87 5 10 30 41 55 69 25 28 46 56
46 62 0 7 7 14 15 17 8 3 22 30 32 60 l17 54 113 0 c74 0 112 -4 108 -10z
m-5595 -1490 c13 -8 15 -252 15 -2099 l0 -2089 -25 -27 c-52 -57 -9 -55 -1052
-55 -632 0 -976 4 -1000 10 -21 6 -51 22 -68 37 -65 54 -60 -119 -60 2135 0
1842 2 2056 16 2076 l15 22 1072 0 c658 0 1078 -4 1087 -10z m1027 -90 c18
-11 35 -30 37 -42 3 -13 8 -379 11 -815 7 -869 9 -837 -52 -862 -19 -8 -89
-11 -213 -9 l-185 3 -3 873 -2 872 187 0 c169 0 191 -2 220 -20z m199 -103
c56 -7 103 -7 148 -1 37 6 68 8 70 6 3 -2 -1 -20 -9 -41 -52 -148 -47 -605 10
-881 19 -90 51 -191 77 -243 14 -29 16 -38 6 -42 -62 -21 -155 -35 -269 -41
l-136 -7 -6 444 c-4 244 -7 531 -7 638 0 180 1 193 18 186 9 -4 54 -12 98 -18z"/>
<path d="M10594 8811 c-20 -12 -38 -36 -49 -65 -17 -44 -17 -46 4 -90 34 -69
116 -102 188 -75 98 37 117 151 35 219 -31 25 -45 30 -92 30 -36 0 -66 -6 -86
-19z"/>
</g>
</svg>
